<?xml version="1.0" encoding="UTF-8"?>
<svg xmlns="http://www.w3.org/2000/svg" xmlns:xlink="http://www.w3.org/1999/xlink" width="32px" height="32px" viewBox="0 0 32 32" version="1.1">
<defs>
<clipPath id="clip1">
  <path d="M 25 14 L 27 14 L 27 17 L 25 17 Z M 25 14 "/>
</clipPath>
<clipPath id="clip2">
  <path d="M 32 16 C 32 7.164062 24.835938 0 16 0 C 7.164062 0 0 7.164062 0 16 C 0 24.835938 7.164062 32 16 32 C 24.835938 32 32 24.835938 32 16 Z M 32 16 "/>
</clipPath>
<clipPath id="clip3">
  <path d="M 5 14 L 7 14 L 7 17 L 5 17 Z M 5 14 "/>
</clipPath>
<clipPath id="clip4">
  <path d="M 32 16 C 32 7.164062 24.835938 0 16 0 C 7.164062 0 0 7.164062 0 16 C 0 24.835938 7.164062 32 16 32 C 24.835938 32 32 24.835938 32 16 Z M 32 16 "/>
</clipPath>
<clipPath id="clip5">
  <path d="M 7 11 L 25 11 L 25 24 L 7 24 Z M 7 11 "/>
</clipPath>
<clipPath id="clip6">
  <path d="M 32 16 C 32 7.164062 24.835938 0 16 0 C 7.164062 0 0 7.164062 0 16 C 0 24.835938 7.164062 32 16 32 C 24.835938 32 32 24.835938 32 16 Z M 32 16 "/>
</clipPath>
<clipPath id="clip7">
  <path d="M 2 24 L 30 24 L 30 32 L 2 32 Z M 2 24 "/>
</clipPath>
<clipPath id="clip8">
  <path d="M 32 16 C 32 7.164062 24.835938 0 16 0 C 7.164062 0 0 7.164062 0 16 C 0 24.835938 7.164062 32 16 32 C 24.835938 32 32 24.835938 32 16 Z M 32 16 "/>
</clipPath>
<clipPath id="clip9">
  <path d="M 13 24 L 19 24 L 19 28 L 13 28 Z M 13 24 "/>
</clipPath>
<clipPath id="clip10">
  <path d="M 32 16 C 32 7.164062 24.835938 0 16 0 C 7.164062 0 0 7.164062 0 16 C 0 24.835938 7.164062 32 16 32 C 24.835938 32 32 24.835938 32 16 Z M 32 16 "/>
</clipPath>
<clipPath id="clip11">
  <path d="M 4 2 L 28 2 L 28 25 L 4 25 Z M 4 2 "/>
</clipPath>
<clipPath id="clip12">
  <path d="M 32 16 C 32 7.164062 24.835938 0 16 0 C 7.164062 0 0 7.164062 0 16 C 0 24.835938 7.164062 32 16 32 C 24.835938 32 32 24.835938 32 16 Z M 32 16 "/>
</clipPath>
<clipPath id="clip13">
  <path d="M 7 11 L 25 11 L 25 24 L 7 24 Z M 7 11 "/>
</clipPath>
<clipPath id="clip14">
  <path d="M 32 16 C 32 7.164062 24.835938 0 16 0 C 7.164062 0 0 7.164062 0 16 C 0 24.835938 7.164062 32 16 32 C 24.835938 32 32 24.835938 32 16 Z M 32 16 "/>
</clipPath>
<clipPath id="clip15">
  <path d="M 8 13 L 24 13 L 24 18 L 8 18 Z M 8 13 "/>
</clipPath>
<clipPath id="clip16">
  <path d="M 32 16 C 32 7.164062 24.835938 0 16 0 C 7.164062 0 0 7.164062 0 16 C 0 24.835938 7.164062 32 16 32 C 24.835938 32 32 24.835938 32 16 Z M 32 16 "/>
</clipPath>
</defs>
<g id="surface1">
<path style=" stroke:none;fill-rule:nonzero;fill:rgb(88.627452%,9.411765%,49.019608%);fill-opacity:1;" d="M 32 16 C 32 7.164062 24.835938 0 16 0 C 7.164062 0 0 7.164062 0 16 C 0 24.835938 7.164062 32 16 32 C 24.835938 32 32 24.835938 32 16 Z M 32 16 "/>
<g clip-path="url(#clip1)" clip-rule="nonzero">
<g clip-path="url(#clip2)" clip-rule="nonzero">
<path style=" stroke:none;fill-rule:nonzero;fill:rgb(100%,100%,100%);fill-opacity:1;" d="M 25.460938 16.789062 C 25.925781 16.726562 26.285156 16.34375 26.285156 15.878906 L 26.285156 15.152344 C 26.285156 14.726562 25.980469 14.378906 25.574219 14.273438 C 25.539062 14.402344 25.496094 14.53125 25.457031 14.660156 C 25.5 15.003906 25.535156 15.351562 25.535156 15.707031 C 25.535156 16.0625 25.503906 16.433594 25.460938 16.789062 Z M 25.460938 16.789062 "/>
</g>
</g>
<g clip-path="url(#clip3)" clip-rule="nonzero">
<g clip-path="url(#clip4)" clip-rule="nonzero">
<path style=" stroke:none;fill-rule:nonzero;fill:rgb(100%,100%,100%);fill-opacity:1;" d="M 6.53125 14.777344 C 6.527344 14.601562 6.519531 14.425781 6.519531 14.25 C 6.0625 14.324219 5.714844 14.695312 5.714844 15.152344 L 5.714844 15.878906 C 5.714844 16.34375 6.074219 16.726562 6.539062 16.789062 C 6.492188 16.433594 6.464844 16.074219 6.464844 15.707031 C 6.464844 15.390625 6.492188 15.082031 6.53125 14.777344 Z M 6.53125 14.777344 "/>
</g>
</g>
<g clip-path="url(#clip5)" clip-rule="nonzero">
<g clip-path="url(#clip6)" clip-rule="nonzero">
<path style=" stroke:none;fill-rule:nonzero;fill:rgb(100%,100%,100%);fill-opacity:1;" d="M 23.824219 17.925781 C 23.960938 17.480469 24.058594 17.023438 24.113281 16.546875 C 24.140625 16.273438 24.160156 15.992188 24.160156 15.707031 C 24.160156 15.308594 24.121094 14.917969 24.058594 14.535156 C 23.996094 14.140625 23.898438 13.753906 23.777344 13.378906 C 23.691406 13.378906 23.601562 13.375 23.507812 13.367188 C 20.207031 13.125 11.148438 11 11.148438 11 C 10.601562 11.976562 9.167969 13.214844 8.046875 14.011719 C 8.007812 14.183594 7.96875 14.355469 7.9375 14.535156 C 7.878906 14.917969 7.835938 15.308594 7.835938 15.707031 C 7.835938 15.992188 7.855469 16.269531 7.886719 16.550781 C 7.941406 17.023438 8.039062 17.480469 8.175781 17.925781 C 9.175781 21.175781 12.300781 23.554688 16 23.554688 C 19.699219 23.554688 22.824219 21.175781 23.824219 17.925781 Z M 23.824219 17.925781 "/>
</g>
</g>
<g clip-path="url(#clip7)" clip-rule="nonzero">
<g clip-path="url(#clip8)" clip-rule="nonzero">
<path style=" stroke:none;fill-rule:nonzero;fill:rgb(0%,0%,0%);fill-opacity:1;" d="M 28.296875 28.578125 L 28.265625 28.519531 C 26.914062 26.257812 24.523438 24.6875 21.746094 24.480469 C 21.539062 24.464844 21.332031 24.449219 21.121094 24.449219 L 18.863281 24.449219 C 18.863281 26.03125 17.582031 27.3125 16 27.3125 C 14.417969 27.3125 13.136719 26.03125 13.132812 24.449219 L 10.878906 24.449219 C 10.667969 24.449219 10.460938 24.464844 10.253906 24.480469 C 7.480469 24.6875 5.085938 26.257812 3.734375 28.519531 L 3.703125 28.578125 C 3.003906 29.773438 2.589844 31.152344 2.566406 32.632812 L 29.433594 32.632812 C 29.410156 31.152344 28.996094 29.773438 28.296875 28.578125 Z M 28.296875 28.578125 "/>
</g>
</g>
<g clip-path="url(#clip9)" clip-rule="nonzero">
<g clip-path="url(#clip10)" clip-rule="nonzero">
<path style=" stroke:none;fill-rule:nonzero;fill:rgb(100%,100%,100%);fill-opacity:1;" d="M 13.152344 24.449219 L 13.132812 24.449219 C 13.132812 26.03125 14.417969 27.3125 16 27.3125 C 17.582031 27.3125 18.863281 26.03125 18.863281 24.449219 L 18.84375 24.449219 C 17.945312 24.722656 16.992188 24.875 16 24.875 C 15.007812 24.875 14.054688 24.722656 13.15625 24.449219 Z M 13.152344 24.449219 "/>
</g>
</g>
<g clip-path="url(#clip11)" clip-rule="nonzero">
<g clip-path="url(#clip12)" clip-rule="nonzero">
<path style=" stroke:none;fill-rule:nonzero;fill:rgb(0%,0%,0%);fill-opacity:1;" d="M 4.339844 15.152344 L 4.339844 15.878906 C 4.339844 17.117188 5.386719 18.125 6.675781 18.125 L 6.8125 18.125 C 7.667969 21.128906 10.078125 23.519531 13.152344 24.449219 C 14.054688 24.722656 15.007812 24.875 16 24.875 C 16.992188 24.875 17.945312 24.722656 18.84375 24.449219 C 21.921875 23.519531 24.332031 21.128906 25.1875 18.125 L 25.324219 18.125 C 26.613281 18.125 27.660156 17.117188 27.660156 15.878906 L 27.660156 15.152344 C 27.660156 14.078125 26.871094 13.183594 25.820312 12.964844 C 25.859375 12.640625 25.882812 12.3125 25.882812 11.980469 L 25.878906 11.886719 C 25.882812 11.648438 25.871094 11.402344 25.84375 11.136719 C 25.699219 9.605469 25.164062 8.1875 24.339844 6.984375 C 23.917969 6.363281 23.410156 5.804688 22.847656 5.308594 C 21.339844 3.988281 19.382812 3.175781 17.234375 3.125 L 17.125 3.039062 C 17.03125 2.9375 16.929688 2.917969 16.863281 2.917969 C 16.699219 2.917969 16.589844 3.023438 16.496094 3.113281 L 16.46875 3.113281 C 15.949219 2.59375 15.558594 2.273438 15.222656 2.273438 C 14.902344 2.296875 13.40625 2.828125 12.929688 3.1875 C 12.824219 3.265625 12.703125 3.367188 12.578125 3.480469 C 8.90625 4.566406 6.226562 7.957031 6.226562 11.980469 C 6.226562 12.042969 6.230469 12.101562 6.230469 12.164062 C 6.226562 12.433594 6.238281 12.699219 6.261719 12.964844 C 5.171875 13.152344 4.339844 14.050781 4.339844 15.152344 Z M 25.574219 14.273438 C 25.980469 14.378906 26.285156 14.726562 26.285156 15.152344 L 26.285156 15.878906 C 26.285156 16.34375 25.925781 16.722656 25.460938 16.789062 C 25.503906 16.433594 25.535156 16.074219 25.535156 15.707031 C 25.535156 15.339844 25.5 15.003906 25.457031 14.660156 C 25.496094 14.53125 25.539062 14.402344 25.574219 14.273438 Z M 7.9375 14.535156 C 7.96875 14.355469 8.007812 14.183594 8.046875 14.011719 C 9.167969 13.214844 10.601562 11.976562 11.148438 11 C 11.148438 11 20.207031 13.125 23.507812 13.367188 C 23.601562 13.375 23.691406 13.378906 23.777344 13.378906 C 23.898438 13.753906 23.996094 14.140625 24.058594 14.535156 C 24.121094 14.917969 24.160156 15.308594 24.160156 15.707031 C 24.160156 15.992188 24.144531 16.273438 24.113281 16.546875 C 24.058594 17.023438 23.960938 17.480469 23.824219 17.925781 C 22.824219 21.175781 19.695312 23.554688 16 23.554688 C 12.304688 23.554688 9.175781 21.175781 8.175781 17.925781 C 8.039062 17.480469 7.941406 17.023438 7.886719 16.550781 C 7.855469 16.269531 7.835938 15.992188 7.835938 15.707031 C 7.835938 15.308594 7.878906 14.917969 7.9375 14.535156 Z M 5.714844 15.152344 C 5.714844 14.695312 6.0625 14.324219 6.519531 14.25 C 6.519531 14.425781 6.527344 14.601562 6.53125 14.777344 C 6.492188 15.082031 6.464844 15.390625 6.464844 15.707031 C 6.464844 16.074219 6.492188 16.433594 6.539062 16.789062 C 6.074219 16.722656 5.714844 16.34375 5.714844 15.878906 Z M 5.714844 15.152344 "/>
</g>
</g>
<g clip-path="url(#clip13)" clip-rule="nonzero">
<g clip-path="url(#clip14)" clip-rule="nonzero">
<path style=" stroke:none;fill-rule:nonzero;fill:rgb(100%,100%,100%);fill-opacity:1;" d="M 23.824219 17.925781 C 23.960938 17.480469 24.058594 17.023438 24.113281 16.546875 C 24.140625 16.273438 24.160156 15.992188 24.160156 15.707031 C 24.160156 15.308594 24.121094 14.917969 24.058594 14.535156 C 23.996094 14.140625 23.898438 13.753906 23.777344 13.378906 C 23.691406 13.378906 23.601562 13.375 23.507812 13.367188 C 20.207031 13.125 11.148438 11 11.148438 11 C 10.601562 11.976562 9.167969 13.214844 8.046875 14.011719 C 8.007812 14.183594 7.96875 14.355469 7.9375 14.535156 C 7.878906 14.917969 7.835938 15.308594 7.835938 15.707031 C 7.835938 15.992188 7.855469 16.269531 7.886719 16.550781 C 7.941406 17.023438 8.039062 17.480469 8.175781 17.925781 C 9.175781 21.175781 12.300781 23.554688 16 23.554688 C 19.699219 23.554688 22.824219 21.175781 23.824219 17.925781 Z M 23.824219 17.925781 "/>
</g>
</g>
<g clip-path="url(#clip15)" clip-rule="nonzero">
<g clip-path="url(#clip16)" clip-rule="nonzero">
<path style=" stroke:none;fill-rule:nonzero;fill:rgb(0%,0%,0%);fill-opacity:1;" d="M 23.371094 15.9375 C 23.371094 14.8125 21.898438 13.898438 20.074219 13.898438 C 19.964844 13.898438 19.851562 13.902344 19.742188 13.910156 L 15.8125 13.898438 L 11.503906 13.898438 C 9.679688 13.898438 8.207031 14.8125 8.207031 15.9375 C 8.207031 17.058594 9.679688 17.972656 11.503906 17.972656 C 12.191406 17.972656 12.828125 17.84375 13.355469 17.621094 C 13.542969 17.542969 13.714844 17.449219 13.871094 17.347656 L 15.902344 16.289062 L 17.671875 17.328125 C 18.273438 17.722656 19.125 17.972656 20.074219 17.972656 C 21.894531 17.972656 23.371094 17.0625 23.371094 15.933594 Z M 11.503906 16.90625 C 10.117188 16.90625 9.273438 16.277344 9.273438 15.9375 C 9.273438 15.59375 10.117188 14.964844 11.503906 14.964844 C 12.886719 14.964844 13.734375 15.59375 13.734375 15.9375 C 13.734375 16.277344 12.886719 16.90625 11.503906 16.90625 Z M 17.84375 15.9375 C 17.84375 15.59375 18.691406 14.964844 20.074219 14.964844 C 21.460938 14.964844 22.308594 15.59375 22.308594 15.9375 C 22.308594 16.277344 21.460938 16.90625 20.074219 16.90625 C 18.691406 16.90625 17.84375 16.277344 17.84375 15.9375 Z M 17.84375 15.9375 "/>
</g>
</g>
</g>
</svg>
